<svg xmlns="http://www.w3.org/2000/svg" xmlns:xlink="http://www.w3.org/1999/xlink" viewBox="0 0 414.81 360.06"><defs><style>.cls-1,.cls-3,.cls-4,.cls-5{fill:#c6ff00;}.cls-1,.cls-14,.cls-15,.cls-17{stroke:#696969;}.cls-1,.cls-10,.cls-11,.cls-12,.cls-14,.cls-15,.cls-17,.cls-2,.cls-21,.cls-22,.cls-24,.cls-29,.cls-3,.cls-32,.cls-34,.cls-4{stroke-linecap:round;stroke-linejoin:round;}.cls-14,.cls-17,.cls-2,.cls-21,.cls-24,.cls-33,.cls-6,.cls-8,.cls-9{fill:#fff;}.cls-10,.cls-2,.cls-29,.cls-3,.cls-32{stroke:#263238;}.cls-21,.cls-22,.cls-24,.cls-4{stroke:#919191;}.cls-6{opacity:0.7;}.cls-33,.cls-7{opacity:0.5;}.cls-9{opacity:0.4;}.cls-10,.cls-15,.cls-22,.cls-34{fill:none;}.cls-11{fill:#c2c2c2;}.cls-11,.cls-12{stroke:#ababab;}.cls-12{fill:#a6a6a6;}.cls-13{clip-path:url(#clip-path);}.cls-14,.cls-21{opacity:0.6;}.cls-16{clip-path:url(#clip-path-2);}.cls-17,.cls-24{opacity:0.39;}.cls-18{clip-path:url(#clip-path-3);}.cls-19{clip-path:url(#clip-path-4);}.cls-20{clip-path:url(#clip-path-5);}.cls-23{clip-path:url(#clip-path-6);}.cls-25{clip-path:url(#clip-path-7);}.cls-26{clip-path:url(#clip-path-8);}.cls-27{clip-path:url(#clip-path-9);}.cls-28{clip-path:url(#clip-path-10);}.cls-29,.cls-30{fill:#263238;}.cls-31{clip-path:url(#clip-path-11);}.cls-32{opacity:0.28;}.cls-34{stroke:#fff;}.cls-35{clip-path:url(#clip-path-12);}.cls-36{opacity:0.2;}.cls-37{clip-path:url(#clip-path-13);}</style><clipPath id="clip-path"><rect id="_Rectangle_" data-name="&lt;Rectangle&gt;" class="cls-1" x="13.9" y="242.05" width="105.96" height="89.01"/></clipPath><clipPath id="clip-path-2"><rect id="_Rectangle_2" data-name="&lt;Rectangle&gt;" class="cls-1" x="84.66" y="242.05" width="35.21" height="89.01"/></clipPath><clipPath id="clip-path-3"><rect id="_Rectangle_3" data-name="&lt;Rectangle&gt;" class="cls-1" x="19.25" y="153.18" width="105.96" height="89.01"/></clipPath><clipPath id="clip-path-4"><rect id="_Rectangle_4" data-name="&lt;Rectangle&gt;" class="cls-1" x="90" y="153.18" width="35.21" height="89.01"/></clipPath><clipPath id="clip-path-5"><rect id="_Rectangle_5" data-name="&lt;Rectangle&gt;" class="cls-4" x="294.99" y="242.05" width="105.96" height="89.01"/></clipPath><clipPath id="clip-path-6"><rect id="_Rectangle_6" data-name="&lt;Rectangle&gt;" class="cls-4" x="365.75" y="242.05" width="35.21" height="89.01"/></clipPath><clipPath id="clip-path-7"><rect id="_Rectangle_7" data-name="&lt;Rectangle&gt;" class="cls-4" x="294.99" y="152.95" width="105.96" height="89.01"/></clipPath><clipPath id="clip-path-8"><rect id="_Rectangle_8" data-name="&lt;Rectangle&gt;" class="cls-4" x="365.75" y="152.95" width="35.21" height="89.01"/></clipPath><clipPath id="clip-path-9"><rect id="_Rectangle_9" data-name="&lt;Rectangle&gt;" class="cls-4" x="303.99" y="79.25" width="87.65" height="73.63"/></clipPath><clipPath id="clip-path-10"><rect id="_Rectangle_10" data-name="&lt;Rectangle&gt;" class="cls-4" x="362.52" y="79.25" width="29.12" height="73.63"/></clipPath><clipPath id="clip-path-11"><rect id="_Rectangle_11" data-name="&lt;Rectangle&gt;" class="cls-2" x="204.71" y="301.9" width="151.73" height="17.66"/></clipPath><clipPath id="clip-path-12"><rect id="_Rectangle_12" data-name="&lt;Rectangle&gt;" class="cls-3" x="224.85" y="123.38" width="84.21" height="69.1"/></clipPath><clipPath id="clip-path-13"><path id="_Clipping_Path_" data-name="&lt;Clipping Path&gt;" class="cls-3" d="M322.92,215.74c-2.7-4.28-13.87-23.26-13.87-23.26H291.23l9.17,23.26Z"/></clipPath></defs><title>Asset 1</title><g id="Layer_2" data-name="Layer 2"><g id="Background_Simple" data-name="Background Simple"><path class="cls-5" d="M54.84,278.54s40.42,51.18,109.47,53.26,130.82-41,181.77-74.52,67.67-89.68,42.23-136-71.61-30.45-127.06-63S196,8.65,131.71,11.57,14.22,83.17,16.56,160.11,54.84,278.54,54.84,278.54Z"/><path class="cls-6" d="M54.84,278.54s40.42,51.18,109.47,53.26,130.82-41,181.77-74.52,67.67-89.68,42.23-136-71.61-30.45-127.06-63S196,8.65,131.71,11.57,14.22,83.17,16.56,160.11,54.84,278.54,54.84,278.54Z"/></g><g id="Plants"><path class="cls-5" d="M67.4,25.33c-.06,0,.7-3.73.77-4,.86-2.66,4.1-7.3,7.23-7.3A3.71,3.71,0,0,1,79,18.29c-.23,2.2-2.21,4.08-4,5.16C72.88,24.72,67.41,25.33,67.4,25.33Z"/><path class="cls-5" d="M61.33.21c3,1.06,4.42,6.52,4.33,9.32,0,.24-.57,4-.62,4l-.06,0c.24.86.48,1.79.73,2.8.44,1.88.93,4,1.3,6.36a65.86,65.86,0,0,1,.83,7.65,48.41,48.41,0,0,1-.29,8.6l0,.1c.39-.83,1.55-3.13,1.65-3.29,1.54-2.34,5.88-6,8.9-5.13a3.71,3.71,0,0,1,2.33,5c-.8,2.06-3.2,3.35-5.22,3.92-2.27.65-7.33-.12-7.73-.18a65.71,65.71,0,0,1-1.86,8.56c-.46,1.64-1,3.28-1.52,4.91.36-.71.68-1.34.74-1.43,1.54-2.34,5.88-6,8.9-5.13a3.71,3.71,0,0,1,2.33,5c-.8,2.06-3.2,3.35-5.22,3.92s-6.37,0-7.51-.15c-.21.63-.42,1.25-.64,1.88-1,3-2.08,6-3,8.94-.33,1-.62,2.08-.91,3.12.32-.63.59-1.16.64-1.23,1.54-2.34,5.88-6,8.9-5.13a3.71,3.71,0,0,1,2.33,5c-.8,2.06-3.2,3.35-5.22,3.92s-5.94.07-7.3-.12c-.27,1.07-.53,2.15-.74,3.2-.13.72-.3,1.41-.39,2.14l-.3,2.14c-.14,1.37-.3,2.78-.4,4.12-.08.93-.14,1.82-.2,2.72.32-1,1-3.07,1.05-3.23A14.41,14.41,0,0,1,61.95,77a4.38,4.38,0,0,1,.4-.72,3.71,3.71,0,0,1,5.46-.85c2.37,2,1.78,7.67.69,10.25-.06.15-.95,1.72-1.52,2.71.42-.53.83-1,1.28-1.58.87-1.07,1.77-2.11,2.74-3.23L72.46,82c.48-.54,1.05-1.05,1.58-1.59,1.25-1.21,2.58-2.38,4-3.53-.93-.77-4.2-3.53-5.15-5.41S71.24,67,72.22,65a3.71,3.71,0,0,1,5.26-1.67c2.66,1.67,2.92,7.31,2.23,10,0,.17-.76,2.06-1.17,3.09.83-.68,1.65-1.37,2.51-2,2.48-1.92,5-3.78,7.6-5.65L91,67.06c-.33-.27-4.3-3.47-5.35-5.57C84.7,59.62,84,57,85,55a3.71,3.71,0,0,1,5.26-1.67c2.66,1.67,2.92,7.31,2.23,10-.05.2-1.08,2.93-1.38,3.6,1.71-1.27,3.4-2.55,5-3.89a65.34,65.34,0,0,0,6.2-5.77c-.16-.12-4.3-3.45-5.38-5.6-.94-1.87-1.61-4.51-.63-6.5a3.71,3.71,0,0,1,5.26-1.67c2.66,1.67,2.92,7.31,2.23,10,0,.18-.83,2.25-1.22,3.23l.15.09A47.78,47.78,0,0,0,107.85,50c.84-1.32,1.56-2.64,2.24-3.93-.84-.54-4.63-3-5.82-4.88s-2.1-4.31-1.34-6.39a3.71,3.71,0,0,1,5-2.24c2.82,1.36,3.71,6.95,3.32,9.72,0,.15-.4,1.66-.7,2.76.3-.59.61-1.19.89-1.76,1-2.13,1.84-4.15,2.55-5.95.39-1,.73-2,1-2.83-.54-1-2.69-4.84-2.89-7s.12-4.79,1.75-6.29a3.71,3.71,0,0,1,5.51.34c1.88,2.51.09,7.88-1.53,10.16-.14.2-2.69,3-2.71,3l0-.06c-.28.85-.58,1.76-.94,2.74-.67,1.81-1.44,3.85-2.43,6a65.86,65.86,0,0,1-3.52,6.84,48.42,48.42,0,0,1-5,7l-.07.07c.78-.48,3-1.76,3.2-1.83,2.57-1.11,8.19-1.73,10.25.63a3.71,3.71,0,0,1-.82,5.46c-1.81,1.28-4.52,1-6.51.4-2.25-.71-6-4.14-6.35-4.41a65.7,65.7,0,0,1-6.28,6.12c-1.29,1.11-2.63,2.19-4,3.26.69-.39,1.31-.74,1.4-.78,2.57-1.11,8.19-1.73,10.26.63a3.71,3.71,0,0,1-.82,5.46c-1.81,1.28-4.52,1-6.51.4s-5.32-3.5-6.18-4.27l-1.56,1.21c-2.52,1.93-5,3.84-7.45,5.79-.85.69-1.66,1.4-2.48,2.1.61-.35,1.13-.64,1.22-.68,2.57-1.11,8.19-1.73,10.25.63A3.71,3.71,0,0,1,90,83c-1.81,1.28-4.52,1-6.51.4s-5-3.22-6-4.13c-.81.75-1.63,1.49-2.38,2.26-.5.53-1,1-1.5,1.57L72.18,84.7c-.87,1.07-1.78,2.16-2.61,3.22-.58.73-1.12,1.44-1.67,2.16.84-.69,2.51-2,2.66-2.11C72.94,86.48,78.4,85,80.8,87a3.71,3.71,0,0,1,0,5.52c-1.59,1.54-4.31,1.7-6.38,1.38-2.27-.36-6.39-3-6.9-3.38C66.63,91.74,65.76,92.9,65,94c-2.77,3.83-4.93,7.13-6.41,9.45l-.15.24-1.92-.93.3-.46c1.55-2.32,3.8-5.6,6.69-9.4.91-1.21,1.9-2.47,2.94-3.77a40.37,40.37,0,0,1-3-3.69c-2.2.86-6.79.9-7.38.9-.1,1.48-.18,2.93-.23,4.29-.2,4.72-.18,8.67-.14,11.42,0,.11,0,.21,0,.32l-2.11-1c0-2.74.1-6.44.38-10.82.09-1.51.22-3.11.37-4.76-.58-.15-5.35-1.37-7.16-2.81-1.63-1.31-3.35-3.42-3.29-5.63A3.71,3.71,0,0,1,48,73.61c3.11.4,5.72,5.42,6.23,8.17,0,.16.16,2,.23,3.1.06-.67.12-1.33.19-2,.14-1.37.32-2.73.5-4.2l.35-2.14c.1-.72.3-1.46.45-2.2.38-1.7.84-3.41,1.35-5.12-1.2-.12-5.45-.62-7.27-1.67s-3.83-2.87-4.11-5.07a3.71,3.71,0,0,1,3.47-4.3c3.13-.08,6.47,4.49,7.4,7.13.06.16.51,2.14.73,3.22.31-1,.62-2.05,1-3.08,1-3,2.12-5.94,3.22-8.9.34-.91.66-1.82,1-2.73-.43,0-5.5-.52-7.54-1.7-1.81-1-3.83-2.87-4.11-5.07a3.71,3.71,0,0,1,3.47-4.3c3.13-.08,6.47,4.49,7.4,7.13.07.2.71,3,.84,3.77.72-2,1.43-4,2-6a65.4,65.4,0,0,0,2-8.24c-.2,0-5.49-.5-7.58-1.7-1.81-1-3.83-2.87-4.11-5.07a3.71,3.71,0,0,1,3.47-4.3c3.13-.08,6.47,4.49,7.4,7.13.06.17.55,2.33.76,3.37h.18a47.8,47.8,0,0,0,.47-8.51c0-1.57-.15-3.06-.3-4.52-1,0-5.54,0-7.54-.86s-4.12-2.44-4.64-4.59a3.71,3.71,0,0,1,3-4.65c3.11-.42,6.93,3.75,8.13,6.28.07.14.58,1.61.94,2.68-.08-.65-.14-1.33-.23-2-.32-2.35-.75-4.48-1.15-6.37-.24-1.07-.47-2-.7-2.93-1-.5-4.91-2.56-6.26-4.22S56,5.11,56.55,3A3.71,3.71,0,0,1,61.33.21Z"/><path class="cls-5" d="M118,48.54c-2.45-.1-7.35-2.61-7.35-2.61s2.64-2.72,2.83-2.88c2.19-1.75,7.45-3.83,10.06-2.1a3.71,3.71,0,0,1,.65,5.48C122.79,48.15,120.11,48.63,118,48.54Z"/><g class="cls-7"><path class="cls-8" d="M67.4,25.33c-.06,0,.7-3.73.77-4,.86-2.66,4.1-7.3,7.23-7.3A3.71,3.71,0,0,1,79,18.29c-.23,2.2-2.21,4.08-4,5.16C72.88,24.72,67.41,25.33,67.4,25.33Z"/><path class="cls-8" d="M61.33.21c3,1.06,4.42,6.52,4.33,9.32,0,.24-.57,4-.62,4l-.06,0c.24.86.48,1.79.73,2.8.44,1.88.93,4,1.3,6.36a65.86,65.86,0,0,1,.83,7.65,48.41,48.41,0,0,1-.29,8.6l0,.1c.39-.83,1.55-3.13,1.65-3.29,1.54-2.34,5.88-6,8.9-5.13a3.71,3.71,0,0,1,2.33,5c-.8,2.06-3.2,3.35-5.22,3.92-2.27.65-7.33-.12-7.73-.18a65.71,65.71,0,0,1-1.86,8.56c-.46,1.64-1,3.28-1.52,4.91.36-.71.68-1.34.74-1.43,1.54-2.34,5.88-6,8.9-5.13a3.71,3.71,0,0,1,2.33,5c-.8,2.06-3.2,3.35-5.22,3.92s-6.37,0-7.51-.15c-.21.63-.42,1.25-.64,1.88-1,3-2.08,6-3,8.94-.33,1-.62,2.08-.91,3.12.32-.63.59-1.16.64-1.23,1.54-2.34,5.88-6,8.9-5.13a3.71,3.71,0,0,1,2.33,5c-.8,2.06-3.2,3.35-5.22,3.92s-5.94.07-7.3-.12c-.27,1.07-.53,2.15-.74,3.2-.13.72-.3,1.41-.39,2.14l-.3,2.14c-.14,1.37-.3,2.78-.4,4.12-.08.93-.14,1.82-.2,2.72.32-1,1-3.07,1.05-3.23A14.41,14.41,0,0,1,61.95,77a4.38,4.38,0,0,1,.4-.72,3.71,3.71,0,0,1,5.46-.85c2.37,2,1.78,7.67.69,10.25-.06.15-.95,1.72-1.52,2.71.42-.53.83-1,1.28-1.58.87-1.07,1.77-2.11,2.74-3.23L72.46,82c.48-.54,1.05-1.05,1.58-1.59,1.25-1.21,2.58-2.38,4-3.53-.93-.77-4.2-3.53-5.15-5.41S71.24,67,72.22,65a3.71,3.71,0,0,1,5.26-1.67c2.66,1.67,2.92,7.31,2.23,10,0,.17-.76,2.06-1.17,3.09.83-.68,1.65-1.37,2.51-2,2.48-1.92,5-3.78,7.6-5.65L91,67.06c-.33-.27-4.3-3.47-5.35-5.57C84.7,59.62,84,57,85,55a3.71,3.71,0,0,1,5.26-1.67c2.66,1.67,2.92,7.31,2.23,10-.05.2-1.08,2.93-1.38,3.6,1.71-1.27,3.4-2.55,5-3.89a65.34,65.34,0,0,0,6.2-5.77c-.16-.12-4.3-3.45-5.38-5.6-.94-1.87-1.61-4.51-.63-6.5a3.71,3.71,0,0,1,5.26-1.67c2.66,1.67,2.92,7.31,2.23,10,0,.18-.83,2.25-1.22,3.23l.15.09A47.78,47.78,0,0,0,107.85,50c.84-1.32,1.56-2.64,2.24-3.93-.84-.54-4.63-3-5.82-4.88s-2.1-4.31-1.34-6.39a3.71,3.71,0,0,1,5-2.24c2.82,1.36,3.71,6.95,3.32,9.72,0,.15-.4,1.66-.7,2.76.3-.59.61-1.19.89-1.76,1-2.13,1.84-4.15,2.55-5.95.39-1,.73-2,1-2.83-.54-1-2.69-4.84-2.89-7s.12-4.79,1.75-6.29a3.71,3.71,0,0,1,5.51.34c1.88,2.51.09,7.88-1.53,10.16-.14.2-2.69,3-2.71,3l0-.06c-.28.85-.58,1.76-.94,2.74-.67,1.81-1.44,3.85-2.43,6a65.86,65.86,0,0,1-3.52,6.84,48.42,48.42,0,0,1-5,7l-.07.07c.78-.48,3-1.76,3.2-1.83,2.57-1.11,8.19-1.73,10.25.63a3.71,3.71,0,0,1-.82,5.46c-1.81,1.28-4.52,1-6.51.4-2.25-.71-6-4.14-6.35-4.41a65.7,65.7,0,0,1-6.28,6.12c-1.29,1.11-2.63,2.19-4,3.26.69-.39,1.31-.74,1.4-.78,2.57-1.11,8.19-1.73,10.26.63a3.71,3.71,0,0,1-.82,5.46c-1.81,1.28-4.52,1-6.51.4s-5.32-3.5-6.18-4.27l-1.56,1.21c-2.52,1.93-5,3.84-7.45,5.79-.85.69-1.66,1.4-2.48,2.1.61-.35,1.13-.64,1.22-.68,2.57-1.11,8.19-1.73,10.25.63A3.71,3.71,0,0,1,90,83c-1.81,1.28-4.52,1-6.51.4s-5-3.22-6-4.13c-.81.75-1.63,1.49-2.38,2.26-.5.53-1,1-1.5,1.57L72.18,84.7c-.87,1.07-1.78,2.16-2.61,3.22-.58.73-1.12,1.44-1.67,2.16.84-.69,2.51-2,2.66-2.11C72.94,86.48,78.4,85,80.8,87a3.71,3.71,0,0,1,0,5.52c-1.59,1.54-4.31,1.7-6.38,1.38-2.27-.36-6.39-3-6.9-3.38C66.63,91.74,65.76,92.9,65,94c-2.77,3.83-4.93,7.13-6.41,9.45l-.15.24-1.92-.93.3-.46c1.55-2.32,3.8-5.6,6.69-9.4.91-1.21,1.9-2.47,2.94-3.77a40.37,40.37,0,0,1-3-3.69c-2.2.86-6.79.9-7.38.9-.1,1.48-.18,2.93-.23,4.29-.2,4.72-.18,8.67-.14,11.42,0,.11,0,.21,0,.32l-2.11-1c0-2.74.1-6.44.38-10.82.09-1.51.22-3.11.37-4.76-.58-.15-5.35-1.37-7.16-2.81-1.63-1.31-3.35-3.42-3.29-5.63A3.71,3.71,0,0,1,48,73.61c3.11.4,5.72,5.42,6.23,8.17,0,.16.16,2,.23,3.1.06-.67.12-1.33.19-2,.14-1.37.32-2.73.5-4.2l.35-2.14c.1-.72.3-1.46.45-2.2.38-1.7.84-3.41,1.35-5.12-1.2-.12-5.45-.62-7.27-1.67s-3.83-2.87-4.11-5.07a3.71,3.71,0,0,1,3.47-4.3c3.13-.08,6.47,4.49,7.4,7.13.06.16.51,2.14.73,3.22.31-1,.62-2.05,1-3.08,1-3,2.12-5.94,3.22-8.9.34-.91.66-1.82,1-2.73-.43,0-5.5-.52-7.54-1.7-1.81-1-3.83-2.87-4.11-5.07a3.71,3.71,0,0,1,3.47-4.3c3.13-.08,6.47,4.49,7.4,7.13.07.2.71,3,.84,3.77.72-2,1.43-4,2-6a65.4,65.4,0,0,0,2-8.24c-.2,0-5.49-.5-7.58-1.7-1.81-1-3.83-2.87-4.11-5.07a3.71,3.71,0,0,1,3.47-4.3c3.13-.08,6.47,4.49,7.4,7.13.06.17.55,2.33.76,3.37h.18a47.8,47.8,0,0,0,.47-8.51c0-1.57-.15-3.06-.3-4.52-1,0-5.54,0-7.54-.86s-4.12-2.44-4.64-4.59a3.71,3.71,0,0,1,3-4.65c3.11-.42,6.93,3.75,8.13,6.28.07.14.58,1.61.94,2.68-.08-.65-.14-1.33-.23-2-.32-2.35-.75-4.48-1.15-6.37-.24-1.07-.47-2-.7-2.93-1-.5-4.91-2.56-6.26-4.22S56,5.11,56.55,3A3.71,3.71,0,0,1,61.33.21Z"/><path class="cls-8" d="M118,48.54c-2.45-.1-7.35-2.61-7.35-2.61s2.64-2.72,2.83-2.88c2.19-1.75,7.45-3.83,10.06-2.1a3.71,3.71,0,0,1,.65,5.48C122.79,48.15,120.11,48.63,118,48.54Z"/></g><path class="cls-5" d="M89.41,109.9S74.54,74.06,66.22,75.62s14.27,57.14,14.27,57.14-26.16-49.35-44-49.35S43,137.95,65.62,156.13c0,0-35.68-38.44-56.49-30.13s41.62,47.27,41.62,47.27-36.27-11.43-32.11-2.6,15.46,10.39,15.46,10.39l9.57,2.08h52l8-3.12s33.3-16.62,24.38-23.38-28.54,7.79-28.54,7.79S133.41,127,126.87,113s-35.68,25.45-35.68,25.45,23.78-50.39,19-59.22S89.41,109.9,89.41,109.9Z"/><path class="cls-9" d="M89.41,109.9S74.54,74.06,66.22,75.62s14.27,57.14,14.27,57.14-26.16-49.35-44-49.35S43,137.95,65.62,156.13c0,0-35.68-38.44-56.49-30.13s41.62,47.27,41.62,47.27-36.27-11.43-32.11-2.6,15.46,10.39,15.46,10.39l15.57,2.08h42l12-3.12s33.3-16.62,24.38-23.38-28.54,7.79-28.54,7.79S133.41,127,126.87,113s-35.68,25.45-35.68,25.45,23.78-50.39,19-59.22S89.41,109.9,89.41,109.9Z"/><path class="cls-10" d="M94.16,111.79c-13.08,38.65-13.08,66-13.08,66s15.46.59,31.51-11.3"/><path class="cls-10" d="M87.62,132.6a231.62,231.62,0,0,0-10.7-33.89"/><path class="cls-10" d="M49,110l33.3,49.35s22.6-19,30.33-29.73"/><path class="cls-10" d="M81.68,171.25S46.59,154.6,32.32,145.09"/></g><g id="Shelf"><rect class="cls-11" x="180.05" y="29.88" width="7.23" height="301.29"/><rect class="cls-11" x="50" y="29.88" width="7.23" height="301.29"/><rect class="cls-11" x="115.03" y="29.88" width="7.23" height="301.29"/><rect class="cls-11" x="245.08" y="29.88" width="7.23" height="301.29"/><rect class="cls-11" x="47.67" y="39.27" width="202.47" height="13.73"/><rect class="cls-12" x="119.84" y="39.27" width="130.3" height="13.73"/><rect class="cls-11" x="47.67" y="177.52" width="202.47" height="13.73"/><rect class="cls-12" x="119.84" y="177.52" width="130.3" height="13.73"/><rect class="cls-11" x="47.67" y="315.76" width="202.47" height="13.73"/><rect class="cls-12" x="119.84" y="315.76" width="130.3" height="13.73"/></g><g id="Boxes"><rect id="_Rectangle_13" data-name="&lt;Rectangle&gt;" class="cls-5" x="13.9" y="242.05" width="105.96" height="89.01"/><g class="cls-13"><rect class="cls-14" x="13.9" y="242.05" width="105.96" height="89.01"/></g><rect id="_Rectangle_14" data-name="&lt;Rectangle&gt;" class="cls-15" x="13.9" y="242.05" width="105.96" height="89.01"/><rect id="_Rectangle_15" data-name="&lt;Rectangle&gt;" class="cls-5" x="84.66" y="242.05" width="35.21" height="89.01"/><g class="cls-16"><rect class="cls-17" x="84.66" y="242.05" width="35.21" height="89.01"/></g><rect id="_Rectangle_16" data-name="&lt;Rectangle&gt;" class="cls-15" x="84.66" y="242.05" width="35.21" height="89.01"/><line class="cls-15" x1="102.63" y1="242.29" x2="102.63" y2="331.17"/><rect id="_Rectangle_17" data-name="&lt;Rectangle&gt;" class="cls-5" x="19.25" y="153.18" width="105.96" height="89.01"/><g class="cls-18"><rect class="cls-14" x="19.25" y="153.18" width="105.96" height="89.01"/></g><rect id="_Rectangle_18" data-name="&lt;Rectangle&gt;" class="cls-15" x="19.25" y="153.18" width="105.96" height="89.01"/><rect id="_Rectangle_19" data-name="&lt;Rectangle&gt;" class="cls-5" x="90" y="153.18" width="35.21" height="89.01"/><g class="cls-19"><rect class="cls-17" x="90" y="153.18" width="35.21" height="89.01"/></g><rect id="_Rectangle_20" data-name="&lt;Rectangle&gt;" class="cls-15" x="90" y="153.18" width="35.21" height="89.01"/><line class="cls-15" x1="107.97" y1="153.42" x2="107.97" y2="242.3"/><rect id="_Rectangle_21" data-name="&lt;Rectangle&gt;" class="cls-5" x="294.99" y="242.05" width="105.96" height="89.01"/><g class="cls-20"><rect class="cls-21" x="294.99" y="242.05" width="105.96" height="89.01"/></g><rect id="_Rectangle_22" data-name="&lt;Rectangle&gt;" class="cls-22" x="294.99" y="242.05" width="105.96" height="89.01"/><rect id="_Rectangle_23" data-name="&lt;Rectangle&gt;" class="cls-5" x="365.75" y="242.05" width="35.21" height="89.01"/><g class="cls-23"><rect class="cls-24" x="365.75" y="242.05" width="35.21" height="89.01"/></g><rect id="_Rectangle_24" data-name="&lt;Rectangle&gt;" class="cls-22" x="365.75" y="242.05" width="35.21" height="89.01"/><line class="cls-22" x1="383.72" y1="242.29" x2="383.72" y2="331.17"/><rect id="_Rectangle_25" data-name="&lt;Rectangle&gt;" class="cls-5" x="294.99" y="152.95" width="105.96" height="89.01"/><g class="cls-25"><rect class="cls-21" x="294.99" y="152.95" width="105.96" height="89.01"/></g><rect id="_Rectangle_26" data-name="&lt;Rectangle&gt;" class="cls-22" x="294.99" y="152.95" width="105.96" height="89.01"/><rect id="_Rectangle_27" data-name="&lt;Rectangle&gt;" class="cls-5" x="365.75" y="152.95" width="35.21" height="89.01"/><g class="cls-26"><rect class="cls-24" x="365.75" y="152.95" width="35.21" height="89.01"/></g><rect id="_Rectangle_28" data-name="&lt;Rectangle&gt;" class="cls-22" x="365.75" y="152.95" width="35.21" height="89.01"/><line class="cls-22" x1="383.72" y1="153.19" x2="383.72" y2="242.07"/><rect id="_Rectangle_29" data-name="&lt;Rectangle&gt;" class="cls-5" x="303.99" y="79.25" width="87.65" height="73.63"/><g class="cls-27"><rect class="cls-21" x="303.99" y="79.25" width="87.65" height="73.63"/></g><rect id="_Rectangle_30" data-name="&lt;Rectangle&gt;" class="cls-22" x="303.99" y="79.25" width="87.65" height="73.63"/><rect id="_Rectangle_31" data-name="&lt;Rectangle&gt;" class="cls-5" x="362.52" y="79.25" width="29.12" height="73.63"/><g class="cls-28"><rect class="cls-24" x="362.52" y="79.25" width="29.12" height="73.63"/></g><rect id="_Rectangle_32" data-name="&lt;Rectangle&gt;" class="cls-22" x="362.52" y="79.25" width="29.12" height="73.63"/><line class="cls-22" x1="377.39" y1="79.45" x2="377.39" y2="152.97"/></g><g id="Hand_Truck" data-name="Hand Truck"><rect class="cls-2" x="366.7" y="297.6" width="13.73" height="8.59"/><circle class="cls-29" cx="251.24" cy="322.87" r="8.3"/><rect class="cls-29" x="382.92" y="185.49" width="4.9" height="137.57"/><path class="cls-30" d="M385.21,233.61l-11.59-9.21a32.91,32.91,0,0,1-11.43-33.67,8.27,8.27,0,0,1,8-6.27h30a8.27,8.27,0,0,1,8,6.27h0a32.91,32.91,0,0,1-11.43,33.67Zm-15-44.47a3.58,3.58,0,0,0-3.48,2.72,28.21,28.21,0,0,0,9.79,28.86l8.68,6.9,8.67-6.9a28.21,28.21,0,0,0,9.79-28.86h0a3.58,3.58,0,0,0-3.48-2.72Z"/><rect id="_Rectangle_33" data-name="&lt;Rectangle&gt;" class="cls-8" x="204.71" y="301.9" width="151.73" height="17.66"/><g class="cls-31"><rect class="cls-32" x="204.71" y="301.9" width="151.73" height="17.66"/></g><rect id="_Rectangle_34" data-name="&lt;Rectangle&gt;" class="cls-10" x="204.71" y="301.9" width="151.73" height="17.66"/><rect class="cls-10" x="204.71" y="301.9" width="17" height="17.66"/><rect class="cls-10" x="339.43" y="301.9" width="17" height="17.66"/><rect class="cls-10" x="272.07" y="301.9" width="17" height="17.66"/><polygon class="cls-2" points="356.43 319.56 366.9 319.56 379.98 269.85 369.51 269.85 356.43 319.56"/><rect class="cls-2" x="378.51" y="290.78" width="13.73" height="22.24"/><path class="cls-30" d="M382,331.17h0a3,3,0,0,1-3-3V317.15a3,3,0,0,1,3-3h0a3,3,0,0,1,3,3v11.07A3,3,0,0,1,382,331.17Z"/><path class="cls-30" d="M389,331.17h0a3,3,0,0,1-3-3V317.15a3,3,0,0,1,3-3h0a3,3,0,0,1,3,3v11.07A3,3,0,0,1,389,331.17Z"/></g><g id="Floor"><line class="cls-10" x1="0.5" y1="331.17" x2="414.31" y2="331.17"/></g><g id="Character"><ellipse class="cls-5" cx="143.26" cy="351.28" rx="72.24" ry="8.78"/><ellipse class="cls-33" cx="143.26" cy="351.28" rx="72.24" ry="8.78"/><ellipse class="cls-5" cx="256.74" cy="351.28" rx="36.01" ry="4.38"/><ellipse class="cls-33" cx="256.74" cy="351.28" rx="36.01" ry="4.38"/><path id="_Path_" data-name="&lt;Path&gt;" class="cls-29" d="M157.65,62s-5.59-4.39-12-2.19-11.27,12.87-13,21.55-8.38,15.26-6.78,25.44,13.17,11.77,27.14,13.27,21.55-.2,28.13-9.38,3.79-20.35-.1-30.23-10.38-19.06-15.76-20.75S157.65,62,157.65,62Z"/><path class="cls-34" d="M134.57,114.27a16,16,0,0,0,2.93,1"/><path class="cls-34" d="M156.28,69.15a68.61,68.61,0,0,1-8.57,14.28c-5.71,7.35-18.37,14.28-19.18,22a7.35,7.35,0,0,0,1.78,5.77"/><path class="cls-34" d="M179.48,106a13.09,13.09,0,0,1-1.58,2.71"/><path class="cls-34" d="M174.64,86.7s6.44,7.43,5.81,15.34"/><path class="cls-34" d="M155.05,65.06a15.76,15.76,0,0,0-13.47,5.31q-.34.38-.64.78"/><path id="_Path_2" data-name="&lt;Path&gt;" class="cls-2" d="M118.16,253.55l-1.24,19.24s-5.32,25.81-7,36.45-4.75,26.83-5.32,26.83-9.73,5.55-12.68,10.07.79,6.45,4.87,5,9.62-5.55,11.43-10.41,2.72-6.68,2.83-7.47,19.47-52.75,21.39-58.29,6-21.85,6-21.85l9.51-32.26s10.19,33.16,10.3,34.64,10.53,86.25,11,89.42.34,5.43,2.26,6.11,6.45.68,8.83.68,10.64,1.25,14.71.23,4.53-1.7,1.7-3.74-18.55-3.34-20-9.28c-.11-.45-.23-87.72-.23-87.72s-1.36-28.86-3.62-37H120.54Z"/><path id="_Path_3" data-name="&lt;Path&gt;" class="cls-29" d="M96.77,351.12c4.07-1.47,9.62-5.55,11.43-10.41l.38-1c-2.31,2.46-6,5.88-6,5.88a7.26,7.26,0,0,0-1.47-3.17,2.63,2.63,0,0,0-2.6-.79l4-4.4c-3,1.86-8.4,5.66-10.52,8.92C89,350.66,92.7,352.59,96.77,351.12Z"/><path id="_Path_4" data-name="&lt;Path&gt;" class="cls-29" d="M196.72,348.17c-1.94-1.39-9.91-2.45-15.23-4.88a1.88,1.88,0,0,0-.51.69,19.77,19.77,0,0,0-.79,2.94l-11-2.35,0,.31c.45,3.17.34,5.43,2.26,6.11s6.45.68,8.83.68,10.64,1.25,14.71.23S199.55,350.21,196.72,348.17Z"/><path id="_Path_5" data-name="&lt;Path&gt;" class="cls-29" d="M133.41,167.29s-5.19,2.39-11.47,13.67c-6.87,12.31-5.69,19.16-5.79,34s-.4,39.51-.4,39.51,19,5.09,32.62,4.29,30.93-3.89,30.93-3.89-3.69-50.28-7.18-64.75-5.59-21-5.59-21a83.08,83.08,0,0,1-20.35.3C134.61,168.29,133.41,167.29,133.41,167.29Z"/><path class="cls-34" d="M155.26,211.72c.52,1.71,1,3.44,1.42,5.18"/><path class="cls-34" d="M143.21,183.42a166.56,166.56,0,0,1,10.34,23.11"/><path id="_Path_6" data-name="&lt;Path&gt;" class="cls-2" d="M260.79,157.69c-.6-.4-10.42-1.94-10.42-1.94l-1.92-.79s11.9,1,12,.45.5-1.1-.3-1.2S244,151,244,151s3.89-3.68,4.39-4.48,1.2-2.39.4-2.39-1,.5-2.1,1.2-5.39,2.39-6.58,3.39-4.79,3.59-4.79,3.59l-41.58-5.72s-14.6-18-17.77-21.85a41.27,41.27,0,0,0-7.47-6.79c-3.06-1.36-2.94.91-2.94.91l6.34,28.41s16.53,9.85,17.54,9.85,45.68,1.48,45.68,1.48a54.88,54.88,0,0,1,4.89,2.59c1.9,1.2,13.87,5,13.87,5s.8-.4-.1-1.1-6.68-3.49-6.68-3.49l12,2.59s.7-.5.4-1-11-4.59-11-4.59l12,.6S261.39,158.09,260.79,157.69Z"/><path class="cls-2" d="M191.27,143.49c-4.32-5.32-12.92-15.91-15.26-18.76a41.27,41.27,0,0,0-7.47-6.79c-3.06-1.36-2.94.91-2.94.91l6.34,28.41s7.46,4.44,12.66,7.36Z"/><path id="_Path_7" data-name="&lt;Path&gt;" class="cls-2" d="M147.08,115.51s-8.68.4-14,6.29-4.69,18.86-2.49,26.64,5,12.07,4.39,14.77-2.79,3.59-1.6,6.09,8.08,5.19,20.25,4.79,14.47-3,14.57-5.29-.8-4.19-.5-5.59,9.08-9.18,9.08-17.76-3.79-11.57-4.69-17.76-.6-7.08-4.29-9.78S152,113.81,147.08,115.51Z"/><path class="cls-10" d="M143.14,145.29a41.44,41.44,0,0,1-9.57,6"/><path class="cls-10" d="M144.1,146.25s-2.15,6.94-7.42,10.77"/><polygon id="_Path_8" data-name="&lt;Path&gt;" class="cls-2" points="165.63 121.8 166.63 131.37 162.44 126.48 165.63 121.8"/><polygon id="_Path_9" data-name="&lt;Path&gt;" class="cls-2" points="160.05 132.17 165.63 121.8 160.54 116.31 160.05 132.17"/><path id="_Path_10" data-name="&lt;Path&gt;" class="cls-2" d="M149.27,98.55a42.38,42.38,0,0,1,1.3,10.58,39.05,39.05,0,0,1-.7,6.88L160,132.17l2.89-15,1.9-10.38S153.26,106.13,149.27,98.55Z"/><polygon id="_Path_11" data-name="&lt;Path&gt;" class="cls-2" points="159.45 123.49 160.05 132.17 157.05 127.48 159.45 123.49"/><polygon id="_Path_12" data-name="&lt;Path&gt;" class="cls-2" points="146.48 115.61 155.76 132.27 159.45 123.49 149.57 109.92 146.48 115.61"/><rect id="_Rectangle_35" data-name="&lt;Rectangle&gt;" class="cls-5" x="224.85" y="123.38" width="84.21" height="69.1"/><g class="cls-35"><rect id="_Rectangle_36" data-name="&lt;Rectangle&gt;" class="cls-36" x="224.85" y="123.38" width="84.21" height="69.1"/></g><rect id="_Rectangle_37" data-name="&lt;Rectangle&gt;" class="cls-10" x="224.85" y="123.38" width="84.21" height="69.1"/><rect id="_Rectangle_38" data-name="&lt;Rectangle&gt;" class="cls-3" x="207.02" y="123.38" width="84.21" height="69.1"/><path id="_Clipping_Path_2" data-name="&lt;Clipping Path&gt;" class="cls-5" d="M322.92,215.74c-2.7-4.28-13.87-23.26-13.87-23.26H291.23l9.17,23.26Z"/><g class="cls-37"><path id="_Path_13" data-name="&lt;Path&gt;" class="cls-36" d="M322.92,215.74c-2.7-4.28-13.87-23.26-13.87-23.26H291.23l9.17,23.26Z"/></g><path id="_Clipping_Path_3" data-name="&lt;Clipping Path&gt;" class="cls-10" d="M322.92,215.74c-2.7-4.28-13.87-23.26-13.87-23.26H291.23l9.17,23.26Z"/><path id="_Path_14" data-name="&lt;Path&gt;" class="cls-3" d="M193.1,215.74c2.7-4.28,13.87-23.26,13.87-23.26h17.83l-9.17,23.26Z"/><polygon id="_Path_15" data-name="&lt;Path&gt;" class="cls-3" points="206.96 192.48 199.21 215.74 287.16 215.74 291.23 192.48 206.96 192.48"/><line class="cls-10" x1="319.89" y1="148.38" x2="319.89" y2="171.52"/><line class="cls-10" x1="324.27" y1="158.39" x2="324.27" y2="177.15"/><line class="cls-10" x1="197.97" y1="171.52" x2="197.97" y2="185.9"/><line class="cls-10" x1="194.22" y1="179.65" x2="194.22" y2="190.9"/><g id="_Group_" data-name="&lt;Group&gt;"><path id="_Path_16" data-name="&lt;Path&gt;" class="cls-2" d="M132.61,140.35A46.23,46.23,0,0,0,142.89,149c6,3.59,28,16.06,29.73,16.76s54.27-7.88,54.27-7.88a54.88,54.88,0,0,1,4.89,2.59c1.9,1.2,13.87,5,13.87,5s.8-.4-.1-1.1-6.68-3.49-6.68-3.49l12,2.59s.7-.5.4-1-11-4.59-11-4.59l12,.6s.9-1.1.3-1.5-12.87-3.19-12.87-3.19,13.07-1.1,13.17-1.6.5-1.1-.3-1.2-17.16-1.7-17.16-1.7,4.29-2.69,4.79-3.49,1.2-2.39.4-2.39-1,.5-2.1,1.2-5.39,2.39-6.58,3.39-4.79,3.59-4.79,3.59l-48.09.1-29.83-23.54"/><path id="_Path_17" data-name="&lt;Path&gt;" class="cls-2" d="M252.53,151c-.8-.1-17.16-1.7-17.16-1.7s4.29-2.69,4.79-3.49,1.2-2.39.4-2.39-1,.5-2.1,1.2-5.39,2.39-6.58,3.39-4.79,3.59-4.79,3.59l-48.09.1-5.36-4.23c-2,3.51-5.74,10.09-8.17,14.43,3.74,2.09,6.58,3.63,7.15,3.87,1.7.7,54.27-7.88,54.27-7.88a54.88,54.88,0,0,1,4.89,2.59c1.9,1.2,13.87,5,13.87,5s.8-.4-.1-1.1-6.68-3.49-6.68-3.49l12,2.59s.7-.5.4-1-11-4.59-11-4.59l12,.6s.9-1.1.3-1.5-12.87-3.19-12.87-3.19,13.07-1.1,13.17-1.6S253.33,151.13,252.53,151Z"/></g><path id="_Path_18" data-name="&lt;Path&gt;" class="cls-2" d="M172,90.17a1.42,1.42,0,0,1,2.49.6,8.11,8.11,0,0,1-1.6,6.19c-1.1,1.1-2.1,1.4-2.1,0A63.76,63.76,0,0,1,172,90.17Z"/><path id="_Path_19" data-name="&lt;Path&gt;" class="cls-2" d="M159.73,72.69a20.39,20.39,0,0,1-5.87,12.91,48.8,48.8,0,0,1-10.76,8s.59,3.13,1.76,4.11,3.52.78,3.52.78a25.36,25.36,0,0,0,6.46,9.78c4.7,4.3,10.18,3.91,13.31-2.54s4.7-12.91,4.31-16.63l-.39-3.72S161.89,79.73,159.73,72.69Z"/><ellipse id="_Path_20" data-name="&lt;Path&gt;" class="cls-30" cx="159.14" cy="90.43" rx="0.9" ry="1.6"/><ellipse id="_Path_21" data-name="&lt;Path&gt;" class="cls-30" cx="164.03" cy="103.2" rx="0.9" ry="1.6"/><ellipse id="_Path_22" data-name="&lt;Path&gt;" class="cls-30" cx="167.82" cy="90.43" rx="0.9" ry="1.6"/><path id="_Path_23" data-name="&lt;Path&gt;" class="cls-10" d="M166,88.73a9.41,9.41,0,0,0-.3,3.69c.3,1.7,1.7,4.59.5,5.09a3.3,3.3,0,0,1-3.39-.4"/><path id="_Path_24" data-name="&lt;Path&gt;" class="cls-10" d="M156.55,87.54s.47-3.07,4.48-2.71"/><path id="_Path_25" data-name="&lt;Path&gt;" class="cls-10" d="M167.29,85.77s3.74-3,5,2.48"/></g></g></svg>